PathFileType	4	(X/Y/Z)	53_2_99_p1_0-227.trc
DataRate	CameraRate	NumFrames	NumMarkers	Units	OrigDataRate	OrigDataStartFrame	OrigNumFrames
60.0	60.0	5	27	m	60.0	28	228
Frame#	Time	RHip			RKnee			RAnkle			RBigToe			RSmallToe			RHeel			LHip			LKnee			LAnkle			LBigToe			LSmallToe			LHeel			Neck			Head			Nose			RShoulder			RElbow			RWrist			RThumb			RIndex			RPinky			LShoulder			LElbow			LWrist			LThumb			LIndex			LPinky			
		X1	Y1	Z1	X2	Y2	Z2	X3	Y3	Z3	X4	Y4	Z4	X5	Y5	Z5	X6	Y6	Z6	X7	Y7	Z7	X8	Y8	Z8	X9	Y9	Z9	X10	Y10	Z10	X11	Y11	Z11	X12	Y12	Z12	X13	Y13	Z13	X14	Y14	Z14	X15	Y15	Z15	X16	Y16	Z16	X17	Y17	Z17	X18	Y18	Z18	X19	Y19	Z19	X20	Y20	Z20	X21	Y21	Z21	X22	Y22	Z22	X23	Y23	Z23	X24	Y24	Z24	X25	Y25	Z25	X26	Y26	Z26	X27	Y27	Z27	
28	0.4666666666666667	0.3883868073529103	0.647529115007657	0.6923760400257151	0.3499266649248855	0.7032713425281105	1.13585927950194	0.32434291612505783	0.821173889279419	1.5217736782669642	0.29865199328863345	0.6709633766629526	1.5500681053111687	0.34812310634370436	0.7124197029426048	1.5672686736435038	0.3107286258719333	0.9217955734368375	1.607030395710277	0.19622003196626012	0.6476956334533299	0.6948484231787878	0.15756658556257283	0.7753306324780502	1.1436301840861633	0.16133574223648117	0.8802587226229354	1.544997118546309	0.16814747164146837	0.6924856485300065	1.5439882085482546	0.11950055678905713	0.7240871607582112	1.5421540894454078	0.17493926079682312	0.932595969601275	1.5842903473919432	0.29890385361987437	0.4909231344238274	0.18425985051205215	0.2960746091741199	0.3656057121704914	-0.04010692238996732	0.3046091799365946	0.30188242316453084	0.09115317648741157	0.4319000896744425	0.5127407426531218	0.24077358664162873	0.4658664316206326	0.5611683747870008	0.5029225941494396	0.32097552002727	0.3942169902132978	0.6442795475346077	0.2280518224880079	0.3742268201301355	0.6845814095307831	0.2192698424239107	0.38868452358439626	0.715964308172169	0.2398732477009881	0.4059366729185076	0.7272048016002818	0.15286885909103887	0.5608058753432724	0.23534392553521172	0.11787166173986101	0.5947020784104241	0.4912371043136001	0.1664102358296321	0.44788603924322834	0.6360684952321679	0.2183928558402905	0.37221753636242033	0.6605832890235758	0.22305529359770218	0.3627852608823167	0.691914278214315	0.22381598862936333	0.38046471281597694	0.715829667533487
29	0.48333333333333334	0.3847074133244904	0.6444226487172282	0.6841088264801082	0.35085043303556157	0.7024213350158799	1.1313052481127241	0.32427709671430965	0.8209128382837512	1.5218233864837358	0.30245937156919406	0.6539937159075313	1.543436228589481	0.3520719316030044	0.6951905021184871	1.5605081025483065	0.31083765930938956	0.9210250811264116	1.6068324562261145	0.19279753703867233	0.6594154760108124	0.6842272325492078	0.15871213435394213	0.7741522371097551	1.1395992040419818	0.16140999307708806	0.8802063496381008	1.5450186906366183	0.16829600471499082	0.692572298362384	1.5440097318054964	0.12405983706418695	0.7076687747714169	1.5358759003526814	0.17351311985593817	0.9342015280677701	1.5903076166645933	0.2991537132934543	0.4926924039744769	0.18803383101960572	0.296082884194669	0.3652966408666773	-0.039916587674860254	0.30456650392849755	0.30184784833086137	0.09117258268992107	0.4322727517280536	0.514493977847197	0.2448517327721608	0.46589005852704674	0.5611649691773682	0.5029998848643104	0.32395425633059804	0.3809001815424796	0.6427283929317148	0.2267392393569412	0.361387198596484	0.6889698863482072	0.2199394474344889	0.37786316496405875	0.7188716867732354	0.24066759059056705	0.3811693404306525	0.7314298132881822	0.152873734013947	0.5612082884245728	0.23565401621547705	0.1186381474865702	0.5931369903046851	0.48442202960611247	0.15911367815683283	0.4489655399411743	0.6361763145207477	0.22191779722155117	0.37261539996715376	0.6553508835237694	0.2241717544079533	0.35096971918804887	0.7004907577106174	0.2232776231457228	0.37927212816357225	0.7192238055003064
30	0.5	0.3803306752807354	0.635021429575432	0.6863543508096301	0.34561246092376646	0.7009679541444425	1.1354132637701067	0.3243230403564419	0.8197942251845785	1.5262318445210767	0.29884676513480896	0.642677324351243	1.5388032987685158	0.351898926920084	0.6957302131610166	1.5606066247813741	0.311919280226816	0.9248733579920804	1.6128684820100798	0.19250050347865466	0.6623534443921661	0.6923378557958474	0.15832478554225965	0.7773628719505746	1.1536782788297846	0.161435910377462	0.8801945032244092	1.5452294956033437	0.1679880005571359	0.6939748043166064	1.539462239822182	0.1245668448503253	0.7105642869420117	1.5409293705746594	0.17374966793801133	0.9353631938801802	1.591115110334901	0.2991256845228238	0.49241896990946094	0.1881690613581681	0.29235516724736277	0.3637661140524656	-0.039599938791802534	0.30429857974495333	0.30212336027293685	0.09426940762727988	0.4277636600735641	0.5035699502355967	0.24896255501364414	0.46520599969692	0.5630796494882925	0.5064824999618994	0.328514811515929	0.38262125427638927	0.6430342056512387	0.2357771637935355	0.3385127519105918	0.7014812466830868	0.23593332686290552	0.3408108211464759	0.7173797141384771	0.26312451795469116	0.3334419891522595	0.7288288329297915	0.15288882370028	0.5611351714888926	0.23973603843909422	0.11440772648743401	0.6090867876129317	0.4886288921025894	0.1544798330474177	0.4465923631697602	0.6397843770095565	0.21249177328612373	0.36012034581170205	0.6794549210490942	0.20437505838691666	0.35077408146460004	0.7081419867534658	0.1953591270692081	0.38548259532503043	0.7267701486790074
31	0.5166666666666667	0.3802068734335881	0.6316294467586289	0.6830058356546792	0.3381146049943979	0.6858108859985131	1.1273802204887187	0.32433618024726696	0.8202028354057905	1.526414520323031	0.2972675253228563	0.6706322069997047	1.5498394802352409	0.34683678601836376	0.7232834905440164	1.5713771748273975	0.312143127596468	0.924194846866704	1.617891730654961	0.196731588220361	0.6435949548893117	0.6825365623769016	0.1639135778272281	0.7608283387237692	1.141414992862397	0.16141854681527262	0.880030169643926	1.5453372035442496	0.16262979084379509	0.6906467490553639	1.5381128925393033	0.12004523624535335	0.7271392227212082	1.5473829648468527	0.1737189533324139	0.9337372498554759	1.5950647020890902	0.3025795630479993	0.47973589181136517	0.19265267659344648	0.29556606215215697	0.3524944273337287	-0.034692521460026715	0.3044699699062307	0.3034823662001024	0.10116574887698045	0.43211003637844614	0.5148279039821381	0.2521220736516336	0.46287169802024863	0.5766111758943833	0.5035612960081753	0.3356534099674479	0.40229673495778706	0.6418272746296816	0.2581441842907351	0.3019820014449277	0.6978432147186068	0.2582104128330868	0.30214557534683034	0.7096321226434178	0.3048956681939637	0.349086168910501	0.7288963912994875	0.1528966222459672	0.5611739486901599	0.23980745725198646	0.12139744795117743	0.6218251607432478	0.4808820404588235	0.13919023324709265	0.4179852062755969	0.6291160879067809	0.17965532179425586	0.30715671258022653	0.6819114490646463	0.16277386354772963	0.2991591969263335	0.7074538251534621	0.14816574142153105	0.3480478507577237	0.7226182929103347
32	0.5333333333333333	0.3811451594342067	0.6217501551573116	0.6859011558233458	0.33800332419240803	0.6857955097900218	1.1270797557940428	0.3202265894290849	0.8051778053471886	1.5208760394102345	0.29409503560321265	0.6602766889097894	1.5412361758618829	0.3391553247641487	0.6981431157288333	1.5609010701161468	0.3093064713297572	0.9446556192958085	1.6302417477147837	0.19769227623542468	0.6471502966883754	0.692811326362091	0.1640526934328441	0.7615221795853856	1.1371603319187455	0.16146254114855202	0.8799608127608199	1.5453976703575674	0.15994680477312231	0.67693103499402	1.5325492155879037	0.12009159463571062	0.7266966658399965	1.547132099401395	0.17385483195780563	0.9340921225693047	1.5953753525480898	0.299483025584887	0.49424081747692994	0.19573701878885985	0.29567059658800005	0.3514413355065768	-0.03432711887572055	0.301157884425659	0.29455075386008905	0.10584623491920266	0.43237477769420357	0.5165522437020361	0.25604461526325	0.4629286190145031	0.5781958158539984	0.49977716253020504	0.3599814236505815	0.4130378598560754	0.6313372077011159	0.27721217424013855	0.2760932172580597	0.6839325295940902	0.30439542598159014	0.24461691930156088	0.6952190390276423	0.3264136914378197	0.3644436895632198	0.7187066130258994	0.1529972200087352	0.5613405139782115	0.24005598243521384	0.11922437847656919	0.6068210796687311	0.4725692614207438	0.10943427493007044	0.37667555794114094	0.6196487319630147	0.1619150691228066	0.2920520108457828	0.674192934864926	0.1432678877044213	0.2734867752056158	0.6967496978425399	0.10416665509924407	0.3683021964214808	0.7192619958021196
